<svg xmlns="http://www.w3.org/2000/svg" viewBox="0 0 288.62 288.62" fill="#fff"><path d="M287.99 215.05l-9.85-24.94a9.06 9.06 0 00-8.43-5.73h-33.89c4.39 0 8.47-2.26 10.8-5.97a82.35 82.35 0 000-87.43 12.74 12.74 0 00-10.8-5.98h-11.34V53.66h5.85a6.55 6.55 0 006.54-6.55v-7.17a6.55 6.55 0 00-6.54-6.55h-48.19a6.55 6.55 0 00-6.55 6.55v7.17a6.55 6.55 0 006.55 6.55H188V85h-38.87V29.45c0-5-4.05-9.06-9.05-9.06H9.06c-5 0-9.06 4.06-9.06 9.06v13.88c0 5 4.05 9.05 9.06 9.05h10.1v132H9.06c-5 0-9.06 4.06-9.06 9.06v24.94c0 5 4.05 9.05 9.06 9.05h19.68a55.86 55.86 0 0155.8-55.79 55.86 55.86 0 0155.79 55.8h26.99a42.92 42.92 0 0141.15-30.92 42.92 42.92 0 0141.15 30.91h29.94a9.05 9.05 0 008.43-12.38zm-171.21-78.3c0 4.7-3.82 8.51-8.52 8.51H57.78a8.52 8.52 0 01-8.52-8.52v-42.6a33.76 33.76 0 1167.52 0v42.6z"/><path d="M208.47 210.51a28.85 28.85 0 00-28.8 27.08h-55.62a40.8 40.8 0 10-7.42 15h66.2a28.85 28.85 0 0054.5-13.22 28.86 28.86 0 00-28.86-28.86z"/></svg>