<svg xmlns="http://www.w3.org/2000/svg" viewBox="0 0 60 22.356">
  <path fill="none" stroke="#000" stroke-width=".273"
    d="M29.965.137h28.222v2.862l1.676.425v12.719l-1.675.425v2.86h-4.585l-.007-.954h-1.11c-.928 0-.61-1.234-2.012-1.234l-12.806.002c-3.371-.332-5.593-.51-7.704-.526m.07-16.578H1.812v2.863l-1.676.424v12.718l1.675.426v2.86h4.585l.007-.953h1.11c.93 0 .61-1.234 2.013-1.234h12.806c3.37-.331 5.592-.509 7.703-.524"
    class="coach-svg-body" />
  <path
    d="M10.257 16.926a2.856 2.716 0 0 0-2.856 2.716 2.856 2.716 0 0 0 2.856 2.714 2.856 2.716 0 0 0 1.952-.733c1.988-1.066 5.3-1.275 7.476-.06.047.025.092.05.137.068a2.856 2.716 0 0 0 1.943.725 2.856 2.716 0 0 0 2.855-2.715 2.856 2.716 0 0 0-2.855-2.714 2.856 2.716 0 0 0-.144.005v-.006H10.316a2.856 2.716 0 0 0-.059 0zm27.787 0a2.856 2.716 0 0 0-2.856 2.716 2.856 2.716 0 0 0 2.856 2.714 2.856 2.716 0 0 0 1.952-.733c1.988-1.066 5.3-1.275 7.476-.06.047.025.092.05.137.068a2.856 2.716 0 0 0 1.943.725 2.856 2.716 0 0 0 2.855-2.715 2.856 2.716 0 0 0-2.855-2.714 2.856 2.716 0 0 0-.144.005v-.006H38.103a2.856 2.716 0 0 0-.059 0z" />
</svg>