<svg xmlns="http://www.w3.org/2000/svg" viewBox="0 0 60 22.352"><path fill="none" stroke="#000" stroke-width=".265" d="M6.194.133h52.022v2.83l1.652.419v12.573l-1.652.42v2.828h-4.52l-.006-.943h-1.096c-.915 0-.6-1.22-1.983-1.22l-12.626.002c-7.087-.7-9.026-.711-15.73.073l-13.745.008c-.754 0-.772.77-1.372.77L3.62 17.89l-3.487-.574v-3.982l.993-.942v-2.096L2.17 9.3C3.025 5.366 3.493.142 6.194.132z" class="coach-svg-body"/><path d="M10.666 16.922a2.856 2.716 0 0 0-2.856 2.716 2.856 2.716 0 0 0 2.856 2.714 2.856 2.716 0 0 0 1.952-.734c1.989-1.064 5.3-1.273 7.477-.06.047.026.092.05.137.07a2.856 2.716 0 0 0 1.944.724 2.856 2.716 0 0 0 2.855-2.714 2.856 2.716 0 0 0-2.855-2.716 2.856 2.716 0 0 0-.144.005v-.004H10.725a2.856 2.716 0 0 0-.06 0zm27.79 0a2.856 2.716 0 0 0-2.856 2.716 2.856 2.716 0 0 0 2.856 2.714 2.856 2.716 0 0 0 1.952-.734c1.989-1.064 5.3-1.273 7.477-.06.047.026.092.05.137.07a2.856 2.716 0 0 0 1.944.724 2.856 2.716 0 0 0 2.855-2.714 2.856 2.716 0 0 0-2.855-2.716 2.856 2.716 0 0 0-.144.005v-.004H38.515a2.856 2.716 0 0 0-.06 0z"/></svg>